<svg width="468" height="641" viewBox="0 0 468 641" fill="none" xmlns="http://www.w3.org/2000/svg">
    <g id="me" clip-path="url(#clip0_127_239)">
        <g id="back-hair">
            <path id="Vector"
                d="M140.652 303.091C140.652 287.275 135.845 273.135 128.296 263.054C120.748 252.975 110.677 247.177 99.9458 247.177C89.2148 247.177 79.1436 252.975 71.5954 263.054C64.0463 273.135 59.2396 287.275 59.2396 303.091C59.2396 318.908 64.0463 333.048 71.5954 343.128C79.1436 353.208 89.2148 359.006 99.9458 359.006C110.677 359.006 120.748 353.208 128.296 343.128C135.845 333.048 140.652 318.908 140.652 303.091Z"
                fill="black" stroke="#070707" stroke-width="9.27929" />
            <path id="Vector_2"
                d="M192.476 489.79C192.476 457.904 171.899 433.876 148.531 433.876C125.162 433.876 104.585 457.904 104.585 489.79C104.585 521.677 125.162 545.704 148.531 545.704C171.899 545.704 192.476 521.677 192.476 489.79Z"
                fill="black" stroke="#070707" stroke-width="9.27929" />
            <path id="Vector_3"
                d="M406.248 457.494C406.248 441.678 401.442 427.538 393.893 417.457C386.345 407.378 376.273 401.58 365.542 401.58C354.811 401.58 344.74 407.378 337.192 417.457C329.643 427.538 324.836 441.678 324.836 457.494C324.836 473.311 329.643 487.451 337.192 497.532C344.74 507.611 354.811 513.409 365.542 513.409C376.273 513.409 386.345 507.611 393.893 497.532C401.442 487.451 406.248 473.311 406.248 457.494Z"
                fill="black" stroke="#070707" stroke-width="9.27929" />
            <path id="Vector_4"
                d="M445.116 384.83C445.116 369.014 440.31 354.874 432.761 344.793C425.213 334.714 415.141 328.916 404.41 328.916C393.679 328.916 383.608 334.714 376.06 344.793C368.511 354.874 363.704 369.014 363.704 384.83C363.704 400.646 368.511 414.786 376.06 424.867C383.608 434.946 393.679 440.744 404.41 440.744C415.141 440.744 425.213 434.946 432.761 424.867C440.31 414.786 445.116 400.646 445.116 384.83Z"
                fill="black" stroke="#070707" stroke-width="9.27929" />
            <path id="Vector_5"
                d="M347.947 497.864C347.947 482.047 343.14 467.907 335.592 457.827C328.044 447.747 317.972 441.95 307.241 441.95C296.51 441.95 286.438 447.747 278.89 457.827C271.342 467.907 266.535 482.047 266.535 497.864C266.535 513.68 271.342 527.82 278.89 537.901C286.438 547.98 296.51 553.778 307.241 553.778C317.972 553.778 328.044 547.98 335.592 537.901C343.14 527.82 347.947 513.68 347.947 497.864Z"
                fill="black" stroke="#070707" stroke-width="9.27929" />
            <path id="Vector_6"
                d="M270.211 505.938C270.211 490.122 265.405 475.982 257.856 465.901C250.308 455.821 240.236 450.024 229.505 450.024C218.774 450.024 208.703 455.821 201.155 465.901C193.606 475.982 188.799 490.122 188.799 505.938C188.799 521.754 193.606 535.894 201.155 545.975C208.703 556.054 218.774 561.852 229.505 561.852C240.236 561.852 250.308 556.054 257.856 545.975C265.405 535.894 270.211 521.754 270.211 505.938Z"
                fill="black" stroke="#070707" stroke-width="9.27929" />
            <path id="Vector_7"
                d="M134.175 441.347C134.175 425.53 129.368 411.39 121.819 401.31C114.271 391.23 104.199 385.432 93.4685 385.432C82.7375 385.432 72.6656 391.23 65.1177 401.31C57.5688 411.39 52.7621 425.53 52.7621 441.347C52.7621 457.163 57.5688 471.303 65.1177 481.384C72.6656 491.463 82.7375 497.261 93.4685 497.261C104.199 497.261 114.271 491.463 121.819 481.384C129.368 471.303 134.175 457.163 134.175 441.347Z"
                fill="black" stroke="#070707" stroke-width="9.27929" />
            <path id="Vector_8"
                d="M101.785 376.756C101.785 360.94 96.9778 346.8 89.429 336.719C81.8808 326.64 71.8096 320.842 61.0784 320.842C50.3473 320.842 40.276 326.64 32.7279 336.719C25.1789 346.8 20.3723 360.94 20.3723 376.756C20.3723 392.572 25.1789 406.713 32.7279 416.793C40.276 426.873 50.3473 432.67 61.0784 432.67C71.8096 432.67 81.8808 426.873 89.429 416.793C96.9778 406.713 101.785 392.572 101.785 376.756Z"
                fill="black" stroke="#070707" stroke-width="9.27929" />
            <path id="Vector_9"
                d="M95.3061 287.944C95.3061 272.127 90.4998 257.988 82.9504 247.906C75.4022 237.827 65.331 232.03 54.6 232.03C43.869 232.03 33.7976 237.827 26.2495 247.906C18.7005 257.988 13.8939 272.127 13.8939 287.944C13.8939 303.76 18.7005 317.9 26.2495 327.981C33.7976 338.06 43.869 343.858 54.6 343.858C65.331 343.858 75.4022 338.06 82.9504 327.981C90.4998 317.9 95.3061 303.76 95.3061 287.944Z"
                fill="black" stroke="#070707" stroke-width="9.27929" />
            <path id="Vector_10"
                d="M347.947 328.313C347.947 312.496 343.14 298.357 335.592 288.275C328.044 278.196 317.972 272.398 307.241 272.398C296.51 272.398 286.438 278.196 278.89 288.275C271.342 298.357 266.535 312.496 266.535 328.313C266.535 344.129 271.342 358.269 278.89 368.35C286.438 378.43 296.51 384.227 307.241 384.227C317.972 384.227 328.044 378.43 335.592 368.35C343.14 358.269 347.947 344.129 347.947 328.313Z"
                fill="black" stroke="#070707" stroke-width="9.27929" />
            <path id="Vector_11"
                d="M425.682 296.017C425.682 280.201 420.875 266.061 413.327 255.981C405.778 245.901 395.707 240.103 384.976 240.103C374.245 240.103 364.173 245.901 356.625 255.981C349.076 266.061 344.27 280.201 344.27 296.017C344.27 311.834 349.076 325.974 356.625 336.054C364.173 346.134 374.245 351.932 384.976 351.932C395.707 351.932 405.778 346.134 413.327 336.054C420.875 325.974 425.682 311.834 425.682 296.017Z"
                fill="black" stroke="#070707" stroke-width="9.27929" />
            <path id="Vector_12"
                d="M458.072 312.165C458.072 296.349 453.265 282.209 445.716 272.128C438.168 262.049 428.097 256.251 417.366 256.251C406.635 256.251 396.563 262.049 389.016 272.128C381.466 282.209 376.66 296.349 376.66 312.165C376.66 327.981 381.466 342.121 389.016 352.202C396.563 362.282 406.635 368.079 417.366 368.079C428.097 368.079 438.168 362.282 445.716 352.202C453.265 342.121 458.072 327.981 458.072 312.165Z"
                fill="black" stroke="#070707" stroke-width="9.27929" />
            <path id="Vector_13"
                d="M270.211 320.24C270.211 304.423 265.405 290.283 257.856 280.202C250.308 270.123 240.236 264.325 229.505 264.325C218.774 264.325 208.703 270.123 201.155 280.202C193.606 290.283 188.799 304.423 188.799 320.24C188.799 336.056 193.606 350.196 201.155 360.276C208.703 370.356 218.774 376.154 229.505 376.154C240.236 376.154 250.308 370.356 257.856 360.276C265.405 350.196 270.211 336.056 270.211 320.24Z"
                fill="black" stroke="#070707" stroke-width="9.27929" />
            <path id="Vector_14"
                d="M393.293 384.83C393.293 369.014 388.486 354.874 380.937 344.793C373.389 334.714 363.317 328.916 352.586 328.916C341.856 328.916 331.784 334.714 324.236 344.793C316.687 354.874 311.88 369.014 311.88 384.83C311.88 400.646 316.687 414.786 324.236 424.867C331.784 434.946 341.856 440.744 352.586 440.744C363.317 440.744 373.389 434.946 380.937 424.867C388.486 414.786 393.293 400.646 393.293 384.83Z"
                fill="black" stroke="#070707" stroke-width="9.27929" />
            <path id="Vector_15"
                d="M250.777 409.051C250.777 393.235 245.97 379.095 238.422 369.015C230.873 358.935 220.802 353.137 210.071 353.137C199.34 353.137 189.268 358.935 181.72 369.015C174.171 379.095 169.364 393.235 169.364 409.051C169.364 424.868 174.171 439.008 181.72 449.088C189.268 459.168 199.34 464.966 210.071 464.966C220.802 464.966 230.873 459.168 238.422 449.088C245.97 439.008 250.777 424.868 250.777 409.051Z"
                fill="black" stroke="#070707" stroke-width="9.27929" />
            <path id="Vector_16"
                d="M211.909 441.347C211.909 425.53 207.103 411.39 199.554 401.31C192.006 391.23 181.934 385.432 171.203 385.432C160.472 385.432 150.401 391.23 142.853 401.31C135.304 411.39 130.497 425.53 130.497 441.347C130.497 457.163 135.304 471.303 142.853 481.384C150.401 491.463 160.472 497.261 171.203 497.261C181.934 497.261 192.006 491.463 199.554 481.384C207.103 471.303 211.909 457.163 211.909 441.347Z"
                fill="black" stroke="#070707" stroke-width="9.27929" />
            <path id="Vector_17"
                d="M341.468 441.347C341.468 425.53 336.661 411.39 329.112 401.31C321.564 391.23 311.493 385.432 300.762 385.432C290.031 385.432 279.96 391.23 272.412 401.31C264.862 411.39 260.056 425.53 260.056 441.347C260.056 457.163 264.862 471.303 272.412 481.384C279.96 491.463 290.031 497.261 300.762 497.261C311.493 497.261 321.564 491.463 329.112 481.384C336.661 471.303 341.468 457.163 341.468 441.347Z"
                fill="black" stroke="#070707" stroke-width="9.27929" />
            <path id="Vector_18"
                d="M283.167 449.421C283.167 433.604 278.36 419.464 270.811 409.384C263.263 399.304 253.192 393.506 242.461 393.506C231.73 393.506 221.658 399.304 214.11 409.384C206.561 419.464 201.755 433.604 201.755 449.421C201.755 465.237 206.561 479.377 214.11 489.457C221.658 499.537 231.73 505.335 242.461 505.335C253.192 505.335 263.263 499.537 270.811 489.457C278.36 479.377 283.167 465.237 283.167 449.421Z"
                fill="black" stroke="#070707" stroke-width="9.27929" />
            <path id="Vector_19"
                d="M328.513 400.977C328.513 385.161 323.707 371.021 316.158 360.94C308.61 350.861 298.538 345.063 287.807 345.063C277.076 345.063 267.005 350.861 259.456 360.94C251.908 371.021 247.101 385.161 247.101 400.977C247.101 416.794 251.908 430.933 259.456 441.015C267.005 451.094 277.076 456.892 287.807 456.892C298.538 456.892 308.61 451.094 316.158 441.015C323.707 430.933 328.513 416.794 328.513 400.977Z"
                fill="black" stroke="#070707" stroke-width="9.27929" />
            <path id="Vector_20"
                d="M173.042 392.904C173.042 377.088 168.235 362.948 160.686 352.867C153.138 342.788 143.067 336.99 132.336 336.99C121.605 336.99 111.533 342.788 103.985 352.867C96.4364 362.948 91.6295 377.088 91.6295 392.904C91.6295 408.72 96.4364 422.86 103.985 432.941C111.533 443.02 121.605 448.818 132.336 448.818C143.067 448.818 153.138 443.02 160.686 432.941C168.235 422.86 173.042 408.72 173.042 392.904Z"
                fill="black" stroke="#070707" stroke-width="9.27929" />
            <path id="Vector_21"
                d="M211.909 336.387C211.909 320.571 207.103 306.431 199.554 296.35C192.006 286.271 181.934 280.473 171.203 280.473C160.472 280.473 150.401 286.271 142.853 296.35C135.304 306.431 130.497 320.571 130.497 336.387C130.497 352.203 135.304 366.343 142.853 376.424C150.401 386.503 160.472 392.301 171.203 392.301C181.934 392.301 192.006 386.503 199.554 376.424C207.103 366.343 211.909 352.203 211.909 336.387Z"
                fill="black" stroke="#070707" stroke-width="9.27929" />
        </g>
        <g id="top">
            <g id="outer-shirt">
                <path id="Vector_22"
                    d="M206.319 466.149H264.579C361.724 466.149 442.824 539.649 452.781 635.808H20.2604C29.0828 539.937 109.567 466.149 206.319 466.149Z"
                    fill="#141212" stroke="#242121" stroke-width="8.11332" />
                <path id="Vector_23" d="M111.672 586.255V639.615" stroke="#241E1E"
                    stroke-width="8.11332" />
                <path id="Vector_24" d="M363.918 586.255V639.615" stroke="#241E1E"
                    stroke-width="8.11332" />
            </g>
            <path id="inner-shirt" d="M292.675 496.038H177.97V636.945H292.675V496.038Z" fill="white"
                stroke="#E9E6E6" stroke-width="8.24361" />
        </g>
        <g id="extra-hair">
            <path id="Vector_25"
                d="M135.76 262.401C135.76 294.464 115.844 318.315 93.6 318.315C71.3561 318.315 51.4396 294.464 51.4396 262.401C51.4396 230.337 71.3561 206.486 93.6 206.486C115.844 206.486 135.76 230.337 135.76 262.401Z"
                fill="black" stroke="#070707" stroke-width="9.27929" />
            <path id="Vector_26"
                d="M189.246 74.7018C189.246 106.44 168.093 130.616 143.743 130.616C119.393 130.616 98.2397 106.44 98.2397 74.7018C98.2397 42.9636 119.393 18.7875 143.743 18.7875C168.093 18.7875 189.246 42.9636 189.246 74.7018Z"
                fill="black" stroke="#070707" stroke-width="9.27929" />
            <path id="Vector_27"
                d="M409.875 108.997C409.875 141.06 389.958 164.911 367.715 164.911C345.471 164.911 325.554 141.06 325.554 108.997C325.554 76.9338 345.471 53.0827 367.715 53.0827C389.958 53.0827 409.875 76.9338 409.875 108.997Z"
                fill="black" stroke="#070707" stroke-width="9.27929" />
            <path id="Vector_28"
                d="M449.989 181.661C449.989 213.725 430.072 237.575 407.829 237.575C385.585 237.575 365.669 213.725 365.669 181.661C365.669 149.598 385.585 125.747 407.829 125.747C430.072 125.747 449.989 149.598 449.989 181.661Z"
                fill="black" stroke="#070707" stroke-width="9.27929" />
            <path id="Vector_29"
                d="M349.704 68.6274C349.704 100.691 329.787 124.542 307.543 124.542C285.3 124.542 265.382 100.691 265.382 68.6274C265.382 36.5644 285.3 12.7135 307.543 12.7135C329.787 12.7135 349.704 36.5644 349.704 68.6274Z"
                fill="black" stroke="#070707" stroke-width="9.27929" />
            <path id="Vector_30"
                d="M269.475 60.5538C269.475 92.6171 249.558 116.468 227.314 116.468C205.071 116.468 185.154 92.6171 185.154 60.5538C185.154 28.4906 205.071 4.63963 227.314 4.63963C249.558 4.63963 269.475 28.4906 269.475 60.5538Z"
                fill="black" stroke="#070707" stroke-width="9.27929" />
            <path id="Vector_31"
                d="M129.075 125.144C129.075 157.208 109.158 181.059 86.9145 181.059C64.6711 181.059 44.7544 157.208 44.7544 125.144C44.7544 93.0811 64.6711 69.2303 86.9145 69.2303C109.158 69.2303 129.075 93.0811 129.075 125.144Z"
                fill="black" stroke="#070707" stroke-width="9.27929" />
            <path id="Vector_32"
                d="M95.6465 189.736C95.6465 221.799 75.7301 245.65 53.4862 245.65C31.2425 245.65 11.3258 221.799 11.3258 189.736C11.3258 157.672 31.2425 133.822 53.4862 133.822C75.7301 133.822 95.6465 157.672 95.6465 189.736Z"
                fill="black" stroke="#070707" stroke-width="9.27929" />
            <path id="Vector_33"
                d="M88.9603 278.548C88.9603 310.611 69.0439 334.462 46.8 334.462C24.5563 334.462 4.63965 310.611 4.63965 278.548C4.63965 246.485 24.5563 222.634 46.8 222.634C69.0439 222.634 88.9603 246.485 88.9603 278.548Z"
                fill="black" stroke="#070707" stroke-width="9.27929" />
            <path id="Vector_34"
                d="M349.704 238.179C349.704 270.242 329.787 294.093 307.543 294.093C285.3 294.093 265.382 270.242 265.382 238.179C265.382 206.116 285.3 182.265 307.543 182.265C329.787 182.265 349.704 206.116 349.704 238.179Z"
                fill="black" stroke="#070707" stroke-width="9.27929" />
            <path id="Vector_35"
                d="M429.931 270.474C429.931 302.537 410.015 326.388 387.771 326.388C365.527 326.388 345.611 302.537 345.611 270.474C345.611 238.411 365.527 214.559 387.771 214.559C410.015 214.559 429.931 238.411 429.931 270.474Z"
                fill="black" stroke="#070707" stroke-width="9.27929" />
            <path id="Vector_36"
                d="M463.36 254.326C463.36 286.39 443.444 310.24 421.2 310.24C398.956 310.24 379.04 286.39 379.04 254.326C379.04 222.263 398.956 198.412 421.2 198.412C443.444 198.412 463.36 222.263 463.36 254.326Z"
                fill="black" stroke="#070707" stroke-width="9.27929" />
            <path id="Vector_37"
                d="M269.475 246.252C269.475 278.315 249.558 302.166 227.314 302.166C205.071 302.166 185.154 278.315 185.154 246.252C185.154 214.189 205.071 190.338 227.314 190.338C249.558 190.338 269.475 214.189 269.475 246.252Z"
                fill="black" stroke="#070707" stroke-width="9.27929" />
            <path id="Vector_38"
                d="M396.503 181.661C396.503 213.725 376.587 237.575 354.343 237.575C332.099 237.575 312.182 213.725 312.182 181.661C312.182 149.598 332.099 125.747 354.343 125.747C376.587 125.747 396.503 149.598 396.503 181.661Z"
                fill="black" stroke="#070707" stroke-width="9.27929" />
            <path id="Vector_39"
                d="M249.417 157.44C249.417 189.503 229.5 213.354 207.257 213.354C185.013 213.354 165.096 189.503 165.096 157.44C165.096 125.377 185.013 101.526 207.257 101.526C229.5 101.526 249.417 125.377 249.417 157.44Z"
                fill="black" stroke="#070707" stroke-width="9.27929" />
            <path id="Vector_40"
                d="M209.303 125.144C209.303 157.208 189.387 181.059 167.143 181.059C144.9 181.059 124.982 157.208 124.982 125.144C124.982 93.0811 144.9 69.2303 167.143 69.2303C189.387 69.2303 209.303 93.0811 209.303 125.144Z"
                fill="black" stroke="#070707" stroke-width="9.27929" />
            <path id="Vector_41"
                d="M343.017 125.144C343.017 157.208 323.1 181.059 300.857 181.059C278.613 181.059 258.696 157.208 258.696 125.144C258.696 93.0811 278.613 69.2303 300.857 69.2303C323.1 69.2303 343.017 93.0811 343.017 125.144Z"
                fill="black" stroke="#070707" stroke-width="9.27929" />
            <path id="Vector_42"
                d="M282.846 117.071C282.846 149.134 262.929 172.985 240.686 172.985C218.442 172.985 198.525 149.134 198.525 117.071C198.525 85.0081 218.442 61.1568 240.686 61.1568C262.929 61.1568 282.846 85.0081 282.846 117.071Z"
                fill="black" stroke="#070707" stroke-width="9.27929" />
            <path id="Vector_43"
                d="M329.647 165.514C329.647 197.577 309.729 221.428 287.486 221.428C265.242 221.428 245.325 197.577 245.325 165.514C245.325 133.451 265.242 109.6 287.486 109.6C309.729 109.6 329.647 133.451 329.647 165.514Z"
                fill="black" stroke="#070707" stroke-width="9.27929" />
            <path id="Vector_44"
                d="M169.189 173.588C169.189 205.651 149.272 229.502 127.029 229.502C104.785 229.502 84.8686 205.651 84.8686 173.588C84.8686 141.524 104.785 117.674 127.029 117.674C149.272 117.674 169.189 141.524 169.189 173.588Z"
                fill="black" stroke="#070707" stroke-width="9.27929" />
            <path id="Vector_45"
                d="M209.303 230.105C209.303 262.168 189.387 286.019 167.143 286.019C144.9 286.019 124.982 262.168 124.982 230.105C124.982 198.041 144.9 174.191 167.143 174.191C189.387 174.191 209.303 198.041 209.303 230.105Z"
                fill="black" stroke="#070707" stroke-width="9.27929" />
        </g>
        <path id="neck"
            d="M284.675 423.772L294.381 478.658C300.771 514.798 272.973 547.943 236.272 547.943C201.068 547.943 173.695 517.317 177.632 482.334L183.865 426.947C186.765 401.173 208.563 381.69 234.5 381.69C259.218 381.69 280.371 399.431 284.675 423.772Z"
            fill="#723929" stroke="#502218" stroke-width="8.11332" />
        <g id="head">
            <g id="ears">
                <g id="right-ear">
                    <path id="Vector_46"
                        d="M137.133 287.726V313.795C137.133 325.397 127.728 334.803 116.125 334.803C97.6005 334.803 82.5842 319.786 82.5842 301.262V287.726C82.5842 272.663 94.7951 260.451 109.858 260.451C124.922 260.451 137.133 272.663 137.133 287.726Z"
                        fill="#723929" stroke="#502218" stroke-width="8.11332" />
                    <path id="Vector_47"
                        d="M94.0508 281.157C101.842 271.187 102.671 273.443 112.309 275.387"
                        stroke="#502218" stroke-width="8.11332" />
                </g>
                <g id="left-ear">
                    <path id="Vector_48"
                        d="M335.278 287.726V313.795C335.278 325.397 344.684 334.803 356.287 334.803C374.811 334.803 389.827 319.787 389.827 301.262V287.726C389.827 272.663 377.617 260.451 362.553 260.451C347.489 260.451 335.278 272.663 335.278 287.726Z"
                        fill="#723929" stroke="#502218" stroke-width="8.11332" />
                    <path id="Vector_49"
                        d="M377.956 278.579C369.189 268.409 368.323 270.657 357.766 272.416"
                        stroke="#502218" stroke-width="8.11332" />
                </g>
                <g id="earrings">
                    <path id="Vector_50"
                        d="M120.546 331.583C120.546 337.385 115.843 342.088 110.042 342.088C104.24 342.088 99.5366 337.385 99.5366 331.583C99.5366 325.782 104.24 321.079 110.042 321.079C115.843 321.079 120.546 325.782 120.546 331.583Z"
                        fill="#F0DB1E" stroke="#BCAC18" stroke-width="3.24532" />
                    <path id="Vector_51"
                        d="M372.792 331.583C372.792 337.385 368.089 342.088 362.287 342.088C356.486 342.088 351.783 337.385 351.783 331.583C351.783 325.782 356.486 321.079 362.287 321.079C368.089 321.079 372.792 325.782 372.792 331.583Z"
                        fill="#F0DB1E" stroke="#BCAC18" stroke-width="3.24532" />
                </g>
            </g>
            <path id="face"
                d="M348.07 265.638V334.467C348.07 396.271 297.968 446.373 236.164 446.373C174.36 446.373 124.259 396.271 124.259 334.467V265.638C124.259 203.834 174.36 153.732 236.164 153.732C297.968 153.732 348.07 203.834 348.07 265.638Z"
                fill="#723929" stroke="#502218" stroke-width="8.11332" />
            <path id="nose" d="M224.037 338.86C232.598 353.241 241.148 350.264 248.292 338.86"
                stroke="#502218" stroke-width="8.11332" />
            <g id="eyebrows">
                <path id="Vector_52"
                    d="M146.423 256.395C170.392 243.776 181.9 243.145 204.634 256.395"
                    stroke="black" stroke-width="8.11332" />
                <path id="Vector_53"
                    d="M321.055 256.395C297.085 243.777 285.578 243.145 262.844 256.395"
                    stroke="black" stroke-width="8.11332" />
            </g>
            <g id="eyes">
                <path id="Vector_54"
                    d="M176.794 270.948C185.53 270.948 192.612 280.721 192.612 292.777C192.612 304.833 185.53 314.606 176.794 314.606C168.057 314.606 160.975 304.833 160.975 292.777C160.975 280.721 168.057 270.948 176.794 270.948Z"
                    fill="black" />
                <path id="Vector_55"
                    d="M290.684 270.948C299.42 270.948 306.502 280.721 306.502 292.777C306.502 304.833 299.42 314.606 290.684 314.606C281.948 314.606 274.866 304.833 274.866 292.777C274.866 280.721 281.948 270.948 290.684 270.948Z"
                    fill="black" />
            </g>
            <g id="glasses">
                <path id="Vector_56"
                    d="M157.741 255.601H191.93C203.978 255.601 213.744 265.367 213.744 277.415V286.193C213.744 307.681 196.325 325.101 174.836 325.101C153.347 325.101 135.927 307.681 135.927 286.193V277.415C135.927 265.367 145.693 255.601 157.741 255.601Z"
                    fill="url(#paint0_linear_127_239)" fill-opacity="0.41" stroke="#612F24"
                    stroke-opacity="0.11" stroke-width="8.11332" />
                <path id="Vector_57"
                    d="M274.163 255.601H309.736C321.784 255.601 331.55 265.367 331.55 277.415V285.5C331.55 307.371 313.82 325.101 291.949 325.101C270.078 325.101 252.348 307.371 252.348 285.5V277.415C252.348 265.367 262.114 255.601 274.163 255.601Z"
                    fill="url(#paint1_linear_127_239)" fill-opacity="0.41" stroke="#612F24"
                    stroke-opacity="0.11" stroke-width="8.11332" />
                <path id="Vector_58" d="M113.653 262.217L137.609 269.544" stroke="#F4F4F4"
                    stroke-width="8.11332" />
                <path id="Vector_59" d="M355.556 265.265L331.086 268.588" stroke="#F4F4F4"
                    stroke-width="8.11332" />
                <path id="Vector_60"
                    d="M157.741 255.601H191.93C203.978 255.601 213.744 265.367 213.744 277.415V286.193C213.744 307.681 196.325 325.101 174.836 325.101C153.347 325.101 135.927 307.681 135.927 286.193V277.415C135.927 265.367 145.693 255.601 157.741 255.601Z"
                    stroke="#F4F4F4" stroke-width="8.11332" />
                <path id="Vector_61"
                    d="M274.163 255.601H309.736C321.784 255.601 331.55 265.367 331.55 277.415V285.5C331.55 307.371 313.82 325.101 291.949 325.101C270.078 325.101 252.348 307.371 252.348 285.5V277.415C252.348 265.367 262.114 255.601 274.163 255.601Z"
                    stroke="#F4F4F4" stroke-width="8.11332" />
                <path id="Vector_62"
                    d="M214.335 266.096C230.654 259.191 239.001 260.081 253.142 266.096"
                    stroke="#F4F4F4" stroke-width="8.11332" />
            </g>
            <g id="mouth">
                <path id="Vector_63"
                    d="M234.621 417.268C214.971 417.268 199.036 401.363 198.989 381.723H273.34C273.293 401.363 257.358 417.268 237.708 417.268H234.621Z"
                    fill="#F15A5A" fill-opacity="0.82" stroke="#502218" stroke-width="8.11332" />
                <path id="Vector_64"
                    d="M211.909 403.88H260.419C254.173 409.501 246.068 412.612 237.665 412.612H234.664C226.261 412.612 218.155 409.501 211.909 403.88Z"
                    fill="#D9D9D9" />
                <path id="Vector_65"
                    d="M201.809 383.764H270.602C270.602 387.238 268.252 390.277 264.848 390.974C260.991 391.764 255.96 392.618 252.257 392.618C245.378 392.618 236.206 392.618 236.206 392.618C236.206 392.618 227.033 392.618 217.861 392.618C211.23 392.618 209.392 392.618 206.284 391.185C203.45 389.877 201.809 386.885 201.809 383.764Z"
                    fill="#D9D9D9" />
            </g>
        </g>
        <g id="front-hair">
            <path id="Vector_66"
                d="M161.77 215.162C161.77 233.283 148.124 247.487 131.87 247.487C115.616 247.487 101.97 233.283 101.97 215.162C101.97 197.042 115.616 182.837 131.87 182.837C148.124 182.837 161.77 197.042 161.77 215.162Z"
                fill="black" stroke="#070707" stroke-width="8.11332" />
            <path id="Vector_67"
                d="M200.577 103.592C200.577 121.445 186.105 135.917 168.252 135.917C150.399 135.917 135.927 121.445 135.927 103.592C135.927 85.7392 150.399 71.2669 168.252 71.2669C186.105 71.2669 200.577 85.7392 200.577 103.592Z"
                fill="black" stroke="#070707" stroke-width="8.11332" />
            <path id="Vector_68"
                d="M360.656 122.995C360.656 141.116 347.011 155.32 330.756 155.32C314.503 155.32 300.857 141.116 300.857 122.995C300.857 104.875 314.503 90.6704 330.756 90.6704C347.011 90.6704 360.656 104.875 360.656 122.995Z"
                fill="black" stroke="#070707" stroke-width="8.11332" />
            <path id="Vector_69"
                d="M389.761 166.653C389.761 184.774 376.116 198.978 359.862 198.978C343.608 198.978 329.963 184.774 329.963 166.653C329.963 148.532 343.608 134.329 359.862 134.329C376.116 134.329 389.761 148.532 389.761 166.653Z"
                fill="black" stroke="#070707" stroke-width="8.11332" />
            <path id="Vector_70"
                d="M316.998 98.7407C316.998 116.862 303.353 131.066 287.099 131.066C270.844 131.066 257.199 116.862 257.199 98.7407C257.199 80.6203 270.844 66.4157 287.099 66.4157C303.353 66.4157 316.998 80.6203 316.998 98.7407Z"
                fill="black" stroke="#070707" stroke-width="8.11332" />
            <path id="Vector_71"
                d="M258.787 93.8902C258.787 112.011 245.142 126.215 228.888 126.215C212.634 126.215 198.989 112.011 198.989 93.8902C198.989 75.7691 212.634 61.5651 228.888 61.5651C245.142 61.5651 258.787 75.7691 258.787 93.8902Z"
                fill="black" stroke="#070707" stroke-width="8.11332" />
            <path id="Vector_72"
                d="M156.919 132.697C156.919 150.818 143.273 165.022 127.02 165.022C110.766 165.022 97.1199 150.818 97.1199 132.697C97.1199 114.577 110.766 100.372 127.02 100.372C143.273 100.372 156.919 114.577 156.919 132.697Z"
                fill="black" stroke="#070707" stroke-width="8.11332" />
            <path id="Vector_73"
                d="M132.665 171.504C132.665 189.625 119.019 203.829 102.765 203.829C86.5112 203.829 72.8659 189.625 72.8659 171.504C72.8659 153.384 86.5112 139.179 102.765 139.179C119.019 139.179 132.665 153.384 132.665 171.504Z"
                fill="black" stroke="#070707" stroke-width="8.11332" />
            <path id="Vector_74"
                d="M127.814 224.864C127.814 242.985 114.168 257.189 97.9138 257.189C81.6601 257.189 68.0147 242.985 68.0147 224.864C68.0147 206.743 81.6601 192.539 97.9138 192.539C114.168 192.539 127.814 206.743 127.814 224.864Z"
                fill="black" stroke="#070707" stroke-width="8.11332" />
            <path id="Vector_75"
                d="M316.998 200.609C316.998 218.73 303.353 232.934 287.099 232.934C270.844 232.934 257.199 218.73 257.199 200.609C257.199 182.489 270.844 168.285 287.099 168.285C303.353 168.285 316.998 182.489 316.998 200.609Z"
                fill="black" stroke="#070707" stroke-width="8.11332" />
            <path id="Vector_76"
                d="M375.208 220.013C375.208 238.134 361.562 252.338 345.309 252.338C329.055 252.338 315.409 238.134 315.409 220.013C315.409 201.892 329.055 187.688 345.309 187.688C361.562 187.688 375.208 201.892 375.208 220.013Z"
                fill="black" stroke="#070707" stroke-width="8.11332" />
            <path id="Vector_77"
                d="M399.463 210.311C399.463 228.432 385.817 242.636 369.563 242.636C353.31 242.636 339.664 228.432 339.664 210.311C339.664 192.191 353.31 177.986 369.563 177.986C385.817 177.986 399.463 192.191 399.463 210.311Z"
                fill="black" stroke="#070707" stroke-width="8.11332" />
            <path id="Vector_78"
                d="M258.787 205.46C258.787 223.581 245.142 237.785 228.888 237.785C212.634 237.785 198.989 223.581 198.989 205.46C198.989 187.339 212.634 173.136 228.888 173.136C245.142 173.136 258.787 187.339 258.787 205.46Z"
                fill="black" stroke="#070707" stroke-width="8.11332" />
            <path id="Vector_79"
                d="M350.954 166.653C350.954 184.774 337.308 198.978 321.055 198.978C304.801 198.978 291.155 184.774 291.155 166.653C291.155 148.532 304.801 134.329 321.055 134.329C337.308 134.329 350.954 148.532 350.954 166.653Z"
                fill="black" stroke="#070707" stroke-width="8.11332" />
            <path id="Vector_80"
                d="M244.235 152.101C244.235 170.221 230.589 184.426 214.335 184.426C198.081 184.426 184.436 170.221 184.436 152.101C184.436 133.98 198.081 119.776 214.335 119.776C230.589 119.776 244.235 133.98 244.235 152.101Z"
                fill="black" stroke="#070707" stroke-width="8.11332" />
            <path id="Vector_81"
                d="M215.129 132.697C215.129 150.818 201.484 165.022 185.23 165.022C168.976 165.022 155.33 150.818 155.33 132.697C155.33 114.577 168.976 100.372 185.23 100.372C201.484 100.372 215.129 114.577 215.129 132.697Z"
                fill="black" stroke="#070707" stroke-width="8.11332" />
            <path id="Vector_82"
                d="M312.147 132.697C312.147 150.818 298.501 165.022 282.247 165.022C265.993 165.022 252.347 150.818 252.347 132.697C252.347 114.577 265.993 100.372 282.247 100.372C298.501 100.372 312.147 114.577 312.147 132.697Z"
                fill="black" stroke="#070707" stroke-width="8.11332" />
            <path id="Vector_83"
                d="M268.489 127.847C268.489 145.967 254.843 160.172 238.589 160.172C222.336 160.172 208.69 145.967 208.69 127.847C208.69 109.726 222.336 95.5216 238.589 95.5216C254.843 95.5216 268.489 109.726 268.489 127.847Z"
                fill="black" stroke="#070707" stroke-width="8.11332" />
            <path id="Vector_84"
                d="M302.446 156.952C302.446 175.072 288.8 189.277 272.546 189.277C256.292 189.277 242.646 175.072 242.646 156.952C242.646 138.831 256.292 124.627 272.546 124.627C288.8 124.627 302.446 138.831 302.446 156.952Z"
                fill="black" stroke="#070707" stroke-width="8.11332" />
            <path id="Vector_85"
                d="M186.024 161.802C186.024 179.923 172.379 194.127 156.125 194.127C139.871 194.127 126.225 179.923 126.225 161.802C126.225 143.682 139.871 129.477 156.125 129.477C172.379 129.477 186.024 143.682 186.024 161.802Z"
                fill="black" stroke="#070707" stroke-width="8.11332" />
            <path id="Vector_86"
                d="M215.129 195.759C215.129 213.879 201.484 228.083 185.23 228.083C168.976 228.083 155.33 213.879 155.33 195.759C155.33 177.638 168.976 163.434 185.23 163.434C201.484 163.434 215.129 177.638 215.129 195.759Z"
                fill="black" stroke="#070707" stroke-width="8.11332" />
            <path id="Vector_87"
                d="M109.983 251.784L121.481 274.699L124.604 242.463L109.983 251.784Z" fill="black"
                stroke="#070707" stroke-width="8.11332" />
            <path id="Vector_88" d="M359.45 253.117L350.212 272.274L345.84 244.951L359.45 253.117Z"
                fill="black" stroke="#070707" stroke-width="8.11332" />
        </g>
    </g>
    <defs>
        <linearGradient id="paint0_linear_127_239" x1="174.836" y1="255.601" x2="174.836"
            y2="325.101" gradientUnits="userSpaceOnUse">
            <stop stop-color="#D9D9D9" stop-opacity="0" />
            <stop offset="0.588542" stop-color="#D9D9D9" />
        </linearGradient>
        <linearGradient id="paint1_linear_127_239" x1="291.949" y1="255.601" x2="291.949"
            y2="325.101" gradientUnits="userSpaceOnUse">
            <stop stop-color="#D9D9D9" stop-opacity="0" />
            <stop offset="0.557292" stop-color="#D9D9D9" />
        </linearGradient>
        <clipPath id="clip0_127_239">
            <rect width="468" height="641.186" fill="white" />
        </clipPath>
    </defs>
</svg>